<?xml version="1.0" encoding="UTF-8" standalone="no"?>
<!DOCTYPE svg PUBLIC "-//W3C//DTD SVG 1.1//EN" "http://www.w3.org/Graphics/SVG/1.1/DTD/svg11.dtd">
<svg xmlns="http://www.w3.org/2000/svg" version="1.1" width="160" height="160" viewBox="0.00 0.00 351.00 322.00">
<g stroke-width="2.00" fill="none" stroke-linecap="butt">
<path stroke="#131313" vector-effect="non-scaling-stroke" d="
  M 249.09 203.49
  C 250.26 201.63 251.70 200.65 252.49 198.55
  Q 253.30 196.39 254.37 194.41"
/>
<path stroke="#7b7b7b" vector-effect="non-scaling-stroke" d="
  M 108.77 64.11
  L 107.32 51.07"
/>
</g>
<path fill="#000000" d="
  M 249.09 203.49
  C 250.26 201.63 251.70 200.65 252.49 198.55
  Q 253.30 196.39 254.37 194.41
  C 258.07 197.49 265.63 202.09 270.31 199.02
  Q 285.27 189.20 300.02 179.06
  Q 301.64 177.94 301.64 176.42
  A 1.04 1.01 18.3 0 0 301.21 175.59
  Q 299.56 174.43 298.05 173.46
  Q 271.84 156.79 245.62 140.14
  Q 242.90 138.41 242.86 133.75
  Q 242.74 116.62 242.99 99.50
  C 243.03 96.59 240.46 94.26 237.84 92.61
  Q 201.85 69.97 165.81 47.41
  C 163.40 45.90 158.23 48.31 155.72 49.07
  Q 148.66 51.18 143.59 48.91
  C 139.95 47.28 136.33 45.74 132.82 48.05
  Q 120.77 55.99 108.77 64.11
  L 107.32 51.07
  Q 116.74 44.94 126.27 38.75
  Q 127.84 37.73 127.28 35.04
  Q 126.36 30.53 126.68 26.01
  C 128.01 7.63 148.02 -0.85 162.75 9.51
  C 170.45 14.92 174.32 23.20 172.07 32.56
  Q 171.17 36.29 174.73 38.59
  Q 210.35 61.54 245.94 84.55
  C 249.03 86.54 250.83 85.42 253.81 83.81
  Q 265.50 77.46 276.93 71.26
  A 2.21 2.19 -13.3 0 0 278.08 69.42
  C 278.56 57.17 283.67 48.47 296.52 46.83
  C 311.63 44.90 320.21 61.19 316.02 74.02
  C 311.23 88.66 292.53 86.28 282.01 81.11
  A 2.68 2.66 -47.3 0 0 279.46 81.22
  Q 268.25 87.94 256.90 95.14
  Q 254.52 96.65 254.49 99.00
  Q 254.26 114.88 254.50 130.76
  Q 254.53 132.63 257.54 134.44
  Q 278.88 147.27 300.32 159.93
  C 305.73 163.14 308.37 158.24 312.31 155.89
  C 324.64 148.55 341.34 155.47 343.42 170.02
  C 346.41 190.88 324.57 198.85 308.72 189.15
  A 1.87 1.86 44.2 0 0 306.74 189.17
  L 268.76 213.30
  A 3.13 3.12 44.2 0 1 265.47 213.34
  L 249.09 203.49
  Z
  M 160.2159 27.3357
  A 10.95 10.03 3.8 0 0 149.9547 16.6021
  A 10.95 10.03 3.8 0 0 138.3641 25.8843
  A 10.95 10.03 3.8 0 0 148.6253 36.6179
  A 10.95 10.03 3.8 0 0 160.2159 27.3357
  Z"
/>
<path fill="#f5f5f5" d="
  M 107.32 51.07
  L 108.77 64.11
  L 83.38 80.52
  A 4.63 4.63 0.0 0 0 81.26 84.39
  Q 81.00 149.38 80.80 214.75
  Q 80.79 217.90 83.46 219.58
  Q 121.73 243.65 160.72 266.54
  Q 164.66 268.85 167.66 269.42
  C 173.14 270.44 179.06 269.52 184.01 273.14
  C 195.27 281.39 195.80 300.90 185.13 309.87
  C 173.42 319.72 157.73 314.33 151.45 301.52
  C 147.55 293.57 149.07 285.54 152.90 278.01
  A 1.55 1.55 0.0 0 0 152.33 275.99
  Q 117.66 254.46 83.34 233.12
  C 78.61 230.18 75.84 227.87 70.27 231.26
  Q 59.45 237.85 48.97 244.53
  A 2.77 2.74 82.1 0 0 47.79 246.11
  Q 46.94 249.15 47.00 252.37
  C 47.23 263.66 37.61 270.23 27.35 270.86
  C 8.39 272.04 4.71 244.34 18.09 235.11
  C 25.60 229.93 33.48 232.24 41.22 234.87
  A 1.46 1.46 0.0 0 0 42.16 234.87
  C 49.78 232.26 58.59 226.41 64.28 221.80
  Q 69.60 217.48 69.60 210.00
  Q 69.53 146.67 69.98 83.67
  A 3.27 3.27 0.0 0 0 68.55 80.95
  L 44.96 64.81
  A 2.42 2.41 42.5 0 0 42.06 64.93
  C 38.85 67.54 35.09 69.53 30.99 70.25
  C 17.70 72.56 5.62 62.89 8.29 48.69
  Q 10.61 36.35 22.02 32.86
  C 37.70 28.07 46.08 38.03 48.00 52.51
  C 48.17 53.75 49.62 55.24 50.81 56.04
  Q 61.26 63.08 71.75 70.03
  C 74.15 71.62 76.82 70.62 79.25 69.06
  Q 93.22 60.06 107.32 51.07
  Z
  M 181.57 292.07
  A 10.29 10.29 0.0 0 0 171.28 281.78
  A 10.29 10.29 0.0 0 0 160.99 292.07
  A 10.29 10.29 0.0 0 0 171.28 302.36
  A 10.29 10.29 0.0 0 0 181.57 292.07
  Z"
/>
<path fill="#262626" d="
  M 254.37 194.41
  Q 253.30 196.39 252.49 198.55
  C 251.70 200.65 250.26 201.63 249.09 203.49
  Q 220.68 186.31 204.92 176.35
  C 202.02 174.52 201.33 171.83 201.36 168.29
  Q 201.56 140.04 201.49 112.31
  A 3.76 3.75 -73.4 0 0 199.80 109.17
  Q 181.85 97.36 164.08 85.90
  C 160.50 83.59 157.69 85.54 153.99 87.83
  Q 140.75 96.03 127.57 104.34
  C 123.76 106.74 123.26 111.16 123.27 115.90
  Q 123.32 173.55 123.13 192.50
  C 123.10 195.42 123.54 196.91 126.17 198.54
  Q 164.58 222.26 202.09 247.41
  Q 207.83 251.26 219.02 255.74
  Q 227.35 259.07 229.90 261.25
  C 245.17 274.31 227.86 299.53 209.45 293.86
  C 202.78 291.80 196.11 285.71 195.09 278.67
  C 194.18 272.38 196.99 267.49 201.22 263.08
  Q 202.71 261.52 200.89 260.36
  L 112.26 203.75
  A 3.34 3.33 -73.9 0 1 110.71 200.93
  Q 110.90 152.41 111.03 103.50
  Q 111.03 101.32 113.19 99.70
  Q 135.66 82.84 162.00 73.05
  C 162.73 72.78 163.87 72.91 164.61 73.36
  Q 188.51 87.66 212.30 102.23
  A 3.80 3.79 15.7 0 1 214.12 105.47
  Q 214.13 135.07 214.12 165.39
  Q 214.11 168.47 217.12 170.37
  Q 236.01 182.34 254.37 194.41
  Z"
/>
<circle fill="#2c7579" cx="159.05" cy="117.98" r="19.23"/>
</svg>
